<?xml version="1.0" encoding="utf-8"?>
<!-- Generator: Adobe Illustrator 16.2.0, SVG Export Plug-In . SVG Version: 6.00 Build 0)  -->
<!DOCTYPE svg PUBLIC "-//W3C//DTD SVG 1.1//EN" "http://www.w3.org/Graphics/SVG/1.1/DTD/svg11.dtd">
<svg version="1.1" id="Layer_1" xmlns="http://www.w3.org/2000/svg" xmlns:xlink="http://www.w3.org/1999/xlink" x="0px" y="0px"
	 width="612px" height="618px" viewBox="0 0 612 618" enable-background="new 0 0 612 618" xml:space="preserve">
<g>
	<g>
		<path fill-rule="evenodd" clip-rule="evenodd" d="M288.07,1.195c67.336,0,134.672,0,202.008,0
			c9.126,2.804,17.817,6.287,24.847,13.186c18.719,18.368,26.464,41.173,26.486,66.751c0.13,149.888-0.003,299.776,0.155,449.664
			c0.017,14.894-4.063,28.164-12.256,40.335c-14.263,21.189-33.225,35.925-58.357,42.064c-112.359,0-224.719,0-337.078,0
			c-16.368-3.884-30.629-11.697-42.679-23.377c-17.814-17.265-28.295-37.184-28.098-63.21c0.689-91.176,0.216-182.362,0.332-273.543
			c0.01-7.721,0.566-15.532,1.822-23.143c4.543-27.542,15.651-51.174,41.334-65.702c-0.744-1.891-1.36-3.54-2.036-5.165
			c-6.548-15.75-13.22-31.449-19.625-47.257c-5.758-14.211-0.239-28.005,13.68-34.072c13.266-5.781,26.612-11.39,40.056-16.742
			c14.438-5.748,28.055,0.065,34.296,14.422c3.477,7.996,6.64,16.128,10.004,24.175c3.638,8.702,7.347,17.375,11.122,26.29
			c5.747-2.527,10.697-5.125,15.93-6.885c4.968-1.67,7.623-4.952,9.838-9.455c13.763-27.977,27.709-55.862,41.646-83.751
			C267.251,14.267,274.814,4.634,288.07,1.195z M483.864,97.2c-1.975,0.885-3.612,1.489-5.131,2.316
			c-39.422,21.445-78.869,42.85-118.22,64.428c-9.429,5.17-19.223,8.196-30.046,8.282c-30.667,0.246-61.333,0.692-91.999,1.144
			c-2.123,0.032-4.365,0.433-6.333,1.214c-30.053,11.917-60.09,23.875-90.083,35.94c-10.946,4.403-17.913,12.382-19.855,24.167
			c-0.869,5.274-1.406,10.668-1.41,16.008c-0.082,99.788-0.06,199.575-0.06,299.364c0,1.734,0,3.469,0,5.415
			c121.373,0,242.143,0,363.138,0C483.864,402.654,483.864,250.191,483.864,97.2z M483.49,39.878
			c-2.484-0.291-3.063-0.418-3.643-0.418c-57.513,0.011-115.024,0.062-172.537-0.032c-3.388-0.005-4.854,1.293-6.172,4.17
			c-7.109,15.506-14.413,30.924-21.656,46.37c-3.931,8.383-7.876,16.761-12.208,25.977c2.781,0,4.694,0,6.607,0
			c17.512,0.001,35.026,0.118,52.536-0.103c3.218-0.041,6.697-0.89,9.584-2.318c35.766-17.707,71.446-35.586,107.144-53.43
			C456.065,53.636,468.974,47.154,483.49,39.878z"/>
		<path fill-rule="evenodd" clip-rule="evenodd" fill="#FFFFFF" d="M288.07,1.195c-13.256,3.439-20.819,13.071-26.572,24.584
			c-13.938,27.889-27.884,55.774-41.646,83.751c-2.215,4.503-4.87,7.785-9.838,9.455c-5.232,1.76-10.183,4.357-15.93,6.885
			c-3.775-8.915-7.483-17.588-11.122-26.29c-3.365-8.046-6.528-16.179-10.004-24.175c-6.242-14.356-19.859-20.17-34.296-14.422
			c-13.444,5.352-26.791,10.961-40.056,16.742c-13.918,6.067-19.438,19.861-13.68,34.072c6.405,15.808,13.077,31.507,19.625,47.257
			c0.675,1.625,1.292,3.273,2.036,5.165c-25.684,14.528-36.792,38.16-41.334,65.702c-1.256,7.611-1.813,15.422-1.822,23.143
			c-0.116,91.181,0.357,182.367-0.332,273.543c-0.197,26.026,10.284,45.945,28.098,63.21c12.05,11.68,26.312,19.493,42.679,23.377
			c-44.227,0-88.453,0-132.68,0c0-204,0-408,0-612C96.82,1.195,192.445,1.195,288.07,1.195z"/>
		<path fill-rule="evenodd" clip-rule="evenodd" fill="#FFFFFF" d="M470.953,613.195c25.133-6.14,44.095-20.875,58.357-42.064
			c8.192-12.171,12.272-25.441,12.256-40.335c-0.158-149.888-0.025-299.776-0.155-449.664c-0.022-25.578-7.768-48.383-26.486-66.751
			c-7.029-6.898-15.721-10.382-24.847-13.186c41.011,0,82.022,0,123.068,0c0,204,0,408,0,612
			C565.717,613.195,518.335,613.195,470.953,613.195z"/>
		<path fill-rule="evenodd" clip-rule="evenodd" fill="#FFFFFF" d="M483.864,97.2c0,152.992,0,305.455,0,458.278
			c-120.995,0-241.765,0-363.138,0c0-1.946,0-3.681,0-5.415c0-99.789-0.021-199.577,0.06-299.364
			c0.004-5.34,0.541-10.734,1.41-16.008c1.942-11.784,8.909-19.764,19.855-24.167c29.994-12.065,60.031-24.023,90.083-35.94
			c1.969-0.781,4.211-1.183,6.333-1.214c30.666-0.452,61.332-0.897,91.999-1.144c10.823-0.086,20.617-3.112,30.046-8.282
			c39.351-21.578,78.798-42.982,118.22-64.428C480.252,98.689,481.89,98.084,483.864,97.2z"/>
		<path fill-rule="evenodd" clip-rule="evenodd" fill="#FFFFFF" d="M483.49,39.878c-14.517,7.276-27.425,13.758-40.345,20.216
			c-35.697,17.843-71.378,35.723-107.144,53.43c-2.887,1.429-6.366,2.277-9.584,2.318c-17.51,0.221-35.024,0.104-52.536,0.103
			c-1.913,0-3.826,0-6.607,0c4.332-9.216,8.277-17.594,12.208-25.977c7.243-15.446,14.546-30.863,21.656-46.37
			c1.318-2.876,2.784-4.175,6.172-4.17c57.513,0.094,115.024,0.042,172.537,0.032C480.427,39.46,481.006,39.588,483.49,39.878z"/>
	</g>
</g>
</svg>
